<svg width="165" height="34" viewBox="0 0 165 34" fill="none" xmlns="http://www.w3.org/2000/svg">
<rect width="33" height="33" transform="translate(0.25 0.0418701)" fill="#394B41"/>
<path d="M12.4189 24.5512L16.7502 21.9387L21.0814 24.5856L19.947 19.6356L23.7627 16.3356L18.7439 15.8887L16.7502 11.2137L14.7564 15.8544L9.73766 16.3012L13.5533 19.6356L12.4189 24.5512ZM10.322 27.436L12.027 20.1306L6.35791 15.2191L13.8255 14.5729L16.7502 7.68274L19.6748 14.5715L27.141 15.2177L21.4733 20.1292L23.1783 27.4346L16.7502 23.5571L10.322 27.436Z" fill="#EAFEF3"/>
<rect width="33" height="33" transform="translate(33.25 0.0418701)" fill="#394B41"/>
<path d="M45.4189 24.5512L49.7502 21.9387L54.0814 24.5856L52.947 19.6356L56.7627 16.3356L51.7439 15.8887L49.7502 11.2137L47.7564 15.8544L42.7377 16.3012L46.5533 19.6356L45.4189 24.5512ZM43.322 27.436L45.027 20.1306L39.3579 15.2191L46.8255 14.5729L49.7502 7.68274L52.6748 14.5715L60.141 15.2177L54.4733 20.1292L56.1783 27.4346L49.7502 23.5571L43.322 27.436Z" fill="#EAFEF3"/>
<path d="M77.311 24.9104L81.6423 22.2979L85.9735 24.9447L84.8391 19.9947L88.6548 16.6947L83.636 16.2479L81.6423 11.5729L79.6485 16.2135L74.6298 16.6604L78.4454 19.9947L77.311 24.9104ZM75.2141 27.7951L76.9191 20.4897L71.25 15.5782L78.7176 14.932L81.6423 8.04187L84.5669 14.9306L92.0331 15.5769L86.3654 20.4884L88.0704 27.7937L81.6423 23.9162L75.2141 27.7951Z" fill="#EAFEF3"/>
<rect width="33" height="33" transform="translate(98.25 0.0418701)" fill="#394B41"/>
<path d="M110.419 24.5512L114.75 21.9387L119.081 24.5856L117.947 19.6356L121.763 16.3356L116.744 15.8887L114.75 11.2137L112.756 15.8544L107.738 16.3012L111.553 19.6356L110.419 24.5512ZM108.322 27.436L110.027 20.1306L104.358 15.2191L111.826 14.5729L114.75 7.68274L117.675 14.5715L125.141 15.2177L119.473 20.1292L121.178 27.4346L114.75 23.5571L108.322 27.436Z" fill="#EAFEF3"/>
<rect width="33" height="33" transform="translate(131.25 0.0418701)" fill="#394B41"/>
<path d="M143.419 24.5512L147.75 21.9387L152.081 24.5856L150.947 19.6356L154.763 16.3356L149.744 15.8887L147.75 11.2137L145.756 15.8544L140.738 16.3012L144.553 19.6356L143.419 24.5512ZM141.322 27.436L143.027 20.1306L137.358 15.2191L144.826 14.5729L147.75 7.68274L150.675 14.5715L158.141 15.2177L152.473 20.1292L154.178 27.4346L147.75 23.5571L141.322 27.436Z" fill="#EAFEF3"/>
</svg>
