<svg width="56" height="44" viewBox="0 0 56 44" fill="none" xmlns="http://www.w3.org/2000/svg">
<path d="M5.64166 39.4066C2.46583 36.0334 0.760742 32.2502 0.760742 26.1174C0.760742 15.3258 8.33649 5.65334 19.3532 0.871094L22.1067 5.11993C11.8237 10.6823 9.81341 17.9003 9.01174 22.4513C10.6675 21.5942 12.8351 21.2951 14.9595 21.4924C20.5218 22.0073 24.9063 26.5738 24.9063 32.2502C24.9063 35.1123 23.7694 37.8572 21.7455 39.881C19.7217 41.9049 16.9768 43.0418 14.1147 43.0418C12.5319 43.028 10.9676 42.6995 9.51297 42.0754C8.05834 41.4513 6.74237 40.5441 5.64166 39.4066ZM36.475 39.4066C33.2992 36.0334 31.5941 32.2502 31.5941 26.1174C31.5941 15.3258 39.1698 5.65334 50.1866 0.871094L52.94 5.11993C42.6571 10.6823 40.6467 17.9003 39.8451 22.4513C41.5008 21.5942 43.6684 21.2951 45.7928 21.4924C51.3552 22.0073 55.7397 26.5738 55.7397 32.2502C55.7397 35.1123 54.6027 37.8572 52.5789 39.881C50.555 41.9049 47.8101 43.0418 44.948 43.0418C43.3652 43.028 41.8009 42.6995 40.3463 42.0754C38.8917 41.4513 37.5757 40.5441 36.475 39.4066Z" fill="#ECD9B4"/>
</svg>
